MoBL_ARMS_module2_4_allmuscles elbow_states	
version=1	
nRows=167	
nColumns=2	
inDegrees=yes	
	
# SIMM Motion File Header:	
name MoBL_ARMS_module2_4_allmuscles elbow_states	
datacolumns 2	
datarows 167	
otherdata 1	
range 1.603585839 1.820735365	
endheader	
time	elbow_flexion
1.603585839	102.5723123
1.604880507	102.5362288
1.606175174	102.5000878
1.607469842	102.4638814
1.609364523	102.4107767
1.610650969	102.374629
1.611937415	102.3384102
1.613223861	102.3021136
1.615112803	102.2486774
1.61639284	102.2123621
1.617672877	102.1759657
1.618952915	102.1394819
1.620834116	102.0857069
1.622108156	102.0491731
1.623382196	102.0125505
1.624656237	101.9758332
1.626530046	101.921662
1.627798726	101.8848629
1.629067406	101.8479692
1.630336086	101.8109755
1.632201719	101.7563963
1.633465756	101.7192873
1.634729793	101.6820769
1.635993829	101.6447588
1.637851426	101.5897219
1.639110253	101.552284
1.64036908	101.5147344
1.641627907	101.4770666
1.643477763	101.4214995
1.64473243	101.3836567
1.645987098	101.345692
1.647241765	101.3075987
1.649082016	101.251494
1.650332882	101.2131905
1.651583748	101.1747532
1.652834614	101.1361749
1.654665086	101.0794662
1.655911242	101.0406765
1.657157399	101.0017404
1.658403555	100.9626511
1.660225168	100.9052355
1.661469608	100.8658143
1.662714047	100.8262355
1.663958487	100.7864926
1.665767047	100.7284427
1.667008538	100.6883859
1.668250028	100.6481627
1.669491518	100.6077673
1.671290147	100.5489404
1.672531783	100.5081131
1.673773419	100.4671115
1.675015054	100.4259298
1.676801553	100.3663627
1.678044321	100.3246987
1.679287089	100.2828527
1.680529857	100.2408188
1.682304879	100.1804596
1.683550463	100.1378684
1.684796047	100.0950861
1.68604163	100.0521056
1.687804674	99.99093065
1.689051691	99.94741033
1.690298709	99.90368326
1.691545727	99.85974076
1.69329983	99.79756227
1.694551197	99.75293023
1.695802564	99.70807059
1.697053931	99.66297455
1.69879562	99.59981202
1.700051739	99.55395921
1.701307858	99.50785449
1.702563978	99.46148683
1.704293416	99.39720967
1.705553816	99.35002878
1.706814215	99.3025604
1.708074615	99.25479118
1.709791493	99.18922775
1.711056972	99.14052018
1.712322451	99.09148462
1.71358793	99.04210778
1.715291143	98.97510346
1.71656253	98.92465965
1.717833917	98.87384593
1.719105303	98.82264764
1.720792682	98.75409193
1.722067892	98.70180351
1.723343103	98.6490971
1.724618314	98.59595695
1.726290089	98.52562266
1.727569708	98.47125467
1.728849327	98.4164197
1.730128946	98.36110258
1.731781883	98.28892336
1.733066355	98.23225115
1.734350827	98.17506336
1.735635298	98.11734347
1.737268544	98.04317068
1.738552474	97.98422813
1.739836404	97.9247218
1.741120334	97.86463553
1.74273747	97.78812021
1.744025027	97.72651361
1.745312583	97.66429427
1.74660014	97.60144631
1.748194968	97.52271855
1.749484499	97.45832828
1.75077403	97.39327593
1.752063561	97.32754398
1.753638321	97.24634034
1.754930625	97.17891473
1.75622293	97.11077346
1.757515234	97.04189924
1.759069296	96.95809447
1.760364434	96.8874151
1.761659572	96.81596927
1.76295471	96.74374004
1.764249849	96.67072105
1.765544987	96.59689759
1.766840125	96.52226133
1.768135263	96.44679769
1.769700489	96.35448105
1.770981745	96.2779841
1.772263001	96.20064625
1.773544258	96.1224516
1.77509001	96.02696694
1.776403796	95.94480558
1.777717582	95.86171641
1.779031369	95.77768277
1.780345155	95.69270116
1.781658941	95.60675846
1.783413797	95.49045271
1.784279002	95.43246193
1.785144206	95.37404245
1.786494941	95.28197613
1.788265264	95.15970585
1.789302155	95.0872349
1.790339046	95.01412852
1.791375936	94.94037884
1.792796162	94.83831734
1.793778683	94.76699201
1.794761203	94.69507964
1.795743724	94.62257338
1.79715132	94.517662
1.798101889	94.44611448
1.799052458	94.37400422
1.800003028	94.30132507
1.801365843	94.19613373
1.802287313	94.1243372
1.803208784	94.05200084
1.804130254	93.97911873
1.805449581	93.87381946
1.806346332	93.80160045
1.807243084	93.72885996
1.808139835	93.65559216
1.809415569	93.55045247
1.810291392	93.47764576
1.811167215	93.40433186
1.812043038	93.33050509
1.813277301	93.22559513
1.814136303	93.15197337
1.814995306	93.07785524
1.815854308	93.00323526
1.817047274	92.89877482
1.817892879	92.82413782
1.818738483	92.74901239
1.819584088	92.67339299
1.820735365	92.56964762
